<svg xmlns="http://www.w3.org/2000/svg" version="1.1" viewBox="-5.0 -10.0 110.0 135.0">
 <path d="m41.812 72.57-1.4102-3.5742c-3.5977-9.2109-4.418-11.309-15.273-15.469-0.40234-0.15234-0.81641-0.19531-1.1641-0.10156-0.25781 0.070313-0.48438 0.22266-0.62891 0.47656l-0.61719 1.0625c-0.14453 0.27344-0.17188 0.58984-0.09375 0.87891 0.070312 0.30078 0.28516 0.57812 0.55469 0.73047l6.3203 3.6484c0.47656 0.27344 0.64062 0.88281 0.36719 1.3594-0.25 0.4375-0.78906 0.61328-1.2461 0.42578l-9.8125-4.0898c-0.20703-0.085938-0.36719-0.23047-0.47266-0.41016l-9.1055-14.453c-0.1875-0.29688-0.47266-0.50391-0.78125-0.58594-0.29297-0.078125-0.60938-0.046875-0.88672 0.10938l-1.0273 0.59375c-0.26562 0.15625-0.4375 0.39844-0.50781 0.67188-0.085938 0.32812-0.050782 0.70703 0.10938 1.0508l6.543 14.055c1.0234 2.1562 3.3359 3.5234 6.0977 5.1562 3.8867 2.2969 8.6055 5.0898 12.375 11.32l10.656-2.8555zm-21.926-37.629c0.55078 0 1 0.44922 1 1 0 0.55078-0.44922 1-1 1h-1.4648c-0.55078 0-1-0.44922-1-1 0-0.55078 0.44922-1 1-1zm2.9219 2c-0.55078 0-1-0.44922-1-1 0-0.55078 0.44922-1 1-1h4.2422c-0.28125-1.0352-0.43359-2.0352-0.43359-3 0-4.3945 1.7852-8.3789 4.6641-11.258s6.8633-4.6641 11.258-4.6641c1.4219 0 2.8047 0.1875 4.125 0.54297 1.168 0.3125 2.2852 0.75781 3.3359 1.3164 1.0508-0.55859 2.168-1.0039 3.3359-1.3164 1.3164-0.35156 2.7031-0.54297 4.125-0.54297 4.3984 0 8.3789 1.7852 11.258 4.6641s4.6641 6.8633 4.6641 11.258c0 9.8555-13.805 22.141-19.824 28.121l-2.8555 2.8438c-0.38672 0.38672-1.0195 0.38672-1.4062-0.003906l-0.67578-0.67578c-8.8789-8.875-17.805-17.812-20.879-25.285zm6.3086-2h6.9102c0.4375 0 0.8125 0.28516 0.94922 0.67969l1.1016 2.9727 2.3086-11.637c0.10547-0.53906 0.62891-0.89453 1.1719-0.78906 0.4375 0.085937 0.75 0.44141 0.80078 0.86328l3.1484 16.922 1.9727-11.18c0.09375-0.54297 0.61328-0.90625 1.1562-0.8125 0.25 0.042968 0.46094 0.17578 0.60938 0.35937l2.6133 3.0703h8.4336l2.8984-2.8984c0.39062-0.39063 1.0234-0.39063 1.4141 0 0.14062 0.14062 0.23047 0.31641 0.26953 0.5l1.1406 3.875 0.95703-1.9531c0.17188-0.35156 0.52734-0.55859 0.89453-0.55859l3.2305-0.003907c0.18359-0.82031 0.28516-1.6211 0.28516-2.4102 0-3.8438-1.5586-7.3242-4.0781-9.8438-2.5195-2.5195-6-4.0781-9.8438-4.0781-1.2539 0-2.4609 0.16406-3.6094 0.47266-1.1875 0.31641-2.3164 0.78906-3.3516 1.3906-0.29688 0.17188-0.67969 0.18359-1 0-1.0352-0.59766-2.1641-1.0742-3.3516-1.3906-1.1484-0.30859-2.3594-0.47266-3.6094-0.47266-3.8438 0-7.3242 1.5586-9.8438 4.0781-2.5195 2.5195-4.0781 6-4.0781 9.8438 0 0.94922 0.17578 1.9492 0.5 3zm41.363 1.4141h-1.9961l-1.7852 3.6406c-0.11328 0.26562-0.33984 0.48438-0.63672 0.57031-0.52734 0.15625-1.082-0.14844-1.2383-0.67578l-1.4102-4.793-2.0039 2.0039c-0.18359 0.17969-0.42969 0.29297-0.70703 0.29297h-9.3086c-0.28516-0.003906-0.56641-0.12109-0.76172-0.35547l-1.5547-1.8281-2.5625 14.508c-0.070313 0.39844-0.38281 0.73047-0.80469 0.80859-0.53906 0.097656-1.0625-0.26172-1.1602-0.80078l-3.2148-17.289-1.9766 9.9688c-0.054687 0.34766-0.28906 0.65625-0.64062 0.78516-0.51562 0.19141-1.0938-0.074218-1.2852-0.58984l-2.1016-5.6641h-5.4375c3.1445 6.8789 11.648 15.391 20.109 23.848l2.1523-2.1406c8.2617-8.207 15.797-15.699 18.328-22.297zm-14.238 35.695 1.4922-3.7773c3.8594-9.8789 4.7383-12.133 16.426-16.609 0.78125-0.29687 1.6289-0.36719 2.3867-0.16406 0.75 0.20312 1.4062 0.66016 1.8398 1.4062l0.35547 0.61328 6.1836-9.9453c0.46094-0.74219 1.1758-1.25 1.9531-1.457 0.66016-0.17578 1.3711-0.14453 2.0352 0.13281l0.16406-0.26172c0.46484-0.73438 1.1719-1.2422 1.9531-1.4531 0.78125-0.21094 1.6328-0.125 2.3945 0.3125l1.0312 0.59375c0.75781 0.4375 1.2383 1.1172 1.4453 1.8867l0.011718 0.050781c0.1875 0.75781 0.10938 1.5938-0.24219 2.3516l-6.5547 14.074c-1.2852 2.707-3.8359 4.2148-6.8828 6.0195-3.5898 2.125-7.9336 4.6914-11.41 10.195 0.60547 0.29688 1.0977 0.76562 1.4219 1.332 0.42578 0.73828 0.57031 1.6367 0.33594 2.5195l-0.44141 1.6406c-0.23828 0.88672-0.81641 1.5938-1.5508 2.0195s-1.6367 0.57031-2.5156 0.33594l-14.586-3.9062c-0.84766-0.24609-1.5312-0.8125-1.9453-1.5312-0.41406-0.71484-0.56641-1.5898-0.35547-2.4492l0.45703-1.7109c0.23828-0.88281 0.8125-1.5898 1.5508-2.0156 0.73828-0.42578 1.6406-0.57422 2.5195-0.33594l0.52734 0.14062zm3.3516-3.0508-1.4102 3.5703 10.656 2.8555c3.7695-6.2305 8.4883-9.0195 12.375-11.32 2.7656-1.6328 5.0781-3 6.0977-5.1562l6.543-14.059c0.15625-0.33594 0.19531-0.69922 0.12109-1.0195l-0.007812-0.027344c-0.074219-0.27344-0.24609-0.51953-0.51172-0.67188l-1.0273-0.59375c-0.27734-0.16016-0.59375-0.1875-0.88672-0.10938-0.30859 0.082031-0.59375 0.28516-0.78125 0.58594l-9.1055 14.453c-0.10547 0.17969-0.26953 0.32422-0.47266 0.41016l-9.8125 4.0938c-0.45703 0.1875-0.99609 0.011719-1.2461-0.42578-0.27344-0.47656-0.10938-1.0859 0.36719-1.3594l6.3203-3.6484c0.30859-0.17578 0.48047-0.44922 0.56641-0.78516 0.058594-0.27344 0.027344-0.56641-0.10938-0.82422l-0.61719-1.0625c-0.14453-0.25-0.37109-0.40625-0.62891-0.47656-0.34766-0.09375-0.76172-0.050782-1.1602 0.10156-10.859 4.1602-11.68 6.2617-15.277 15.473zm19.684-12.57-0.042969 0.13672 0.89453-0.37109 7.6758-12.188c-0.13672-0.011718-0.27734 0-0.41016 0.035157-0.30859 0.082031-0.58984 0.28516-0.77344 0.57812l-7.3398 11.809zm-9.5664 21.297-14.512-3.8867c-0.35156-0.09375-0.71484-0.035156-1.0078 0.13281-0.29297 0.16797-0.52734 0.45312-0.62109 0.80469l-0.4375 1.6445c-0.09375 0.35156-0.035156 0.71484 0.13281 1.0078 0.16406 0.28906 0.44531 0.51953 0.78906 0.61719l14.523 3.8906c0.35547 0.09375 0.71875 0.035156 1.0078-0.13281 0.29297-0.16797 0.52734-0.45313 0.61719-0.80078l0.44141-1.6445c0.09375-0.35547 0.035157-0.71875-0.13281-1.0117-0.16797-0.29297-0.45312-0.52344-0.80469-0.61719zm-27.453-9.457 1.4922 3.7812 0.52734-0.14062c0.88281-0.23438 1.7852-0.089844 2.5234 0.33594 0.73828 0.42578 1.3125 1.1367 1.5508 2.0156l0.45703 1.7109c0.21094 0.85938 0.058594 1.7344-0.35547 2.4531s-1.0977 1.2852-1.9453 1.5312l-14.582 3.9062c-0.88672 0.23438-1.7852 0.089844-2.5234-0.33594-0.73438-0.42578-1.3125-1.1289-1.5508-2.0156l-0.44141-1.6445c-0.23438-0.87891-0.089844-1.7812 0.33594-2.5195 0.32422-0.56641 0.81641-1.0352 1.4219-1.332-3.4766-5.5039-7.8164-8.0703-11.41-10.195-3.0469-1.8008-5.5977-3.3125-6.8828-6.0156l-6.5547-14.07c-0.35937-0.77734-0.4375-1.6367-0.23047-2.4062 0.20703-0.76953 0.69141-1.4531 1.4414-1.8867l1.0352-0.59375c0.76172-0.4375 1.6133-0.52344 2.3945-0.3125 0.78125 0.21094 1.4883 0.71484 1.9531 1.4531l0.16406 0.26172c0.66406-0.27734 1.375-0.3125 2.0352-0.13281 0.78125 0.21094 1.4922 0.71875 1.9531 1.4609l6.1836 9.9414 0.35547-0.61328c0.43359-0.74609 1.0898-1.2031 1.8398-1.4062 0.75781-0.20312 1.6094-0.13281 2.3867 0.16406 11.684 4.4766 12.566 6.7305 16.422 16.609zm-21.5-11.703-0.042968-0.13281-7.3438-11.809c-0.18359-0.29688-0.46484-0.5-0.77344-0.58203-0.13281-0.035157-0.27344-0.046875-0.41016-0.035157l7.6758 12.188 0.89453 0.375zm24.035 17.273-14.512 3.8867c-0.35156 0.09375-0.63672 0.32422-0.80469 0.61719-0.16797 0.29297-0.22656 0.65625-0.13281 1.0117l0.44141 1.6406c0.09375 0.35547 0.32812 0.63672 0.62109 0.80859 0.29297 0.16797 0.65234 0.22656 1.0039 0.13281l14.531-3.8945c0.34375-0.09375 0.62109-0.32422 0.78906-0.61328 0.16797-0.29688 0.22656-0.65625 0.13281-1.0117l-0.4375-1.6445c-0.09375-0.35156-0.32422-0.63672-0.61719-0.80469-0.29688-0.17188-0.65625-0.22656-1.0117-0.13281z"/>
</svg>
